# xmcd
#
# Track frame offsets:
#	150
#	22314
#	40274
#	57022
#	59256
#	86598
#	112503
#	134606
#	154529
#	155831
#	180219
#	194701
#	217569
#	219376
#	251483
#	277903
#
# Disc length: 3736 seconds
#
# Revision: 1
# Processed by: cddbd v1.5.1PL0 Copyright (c) Steve Scherf et al.
# Submitted via: CDex 1.50Beta5
#
DISCID=d50e9610
DTITLE=サウンドトラック - GAIA SYMPHONY
DYEAR=1900
DGENRE=Soundtrack
TTITLE0=THERE IS A SHIP
TTITLE1=GREEN LEEVES FANTASY
TTITLE2=BARBARA ALLEN
TTITLE3=ORCA'S ISLAND
TTITLE4=UNCHAINED MELODY
TTITLE5=THE RIDDLE SONG
TTITLE6=HOKULE'A HULA
TTITLE7=SPREADING OUT ENERGY
TTITLE8=HULA KAHIKO
TTITLE9=LEI PIKAKE
TTITLE10=SILENT JOY
TTITLE11=CALM BEYOND THE STORM
TTITLE12=DANCE OF THE BEAR CLAN
TTITLE13=FOOTRINTS OF BUDDHA'S CHILDREN
TTITLE14=GRADUATION
TTITLE15=STORY TELLING
EXTD=
EXTT0=
EXTT1=
EXTT2=
EXTT3=
EXTT4=
EXTT5=
EXTT6=
EXTT7=
EXTT8=
EXTT9=
EXTT10=
EXTT11=
EXTT12=
EXTT13=
EXTT14=
EXTT15=
PLAYORDER=
